<?xml version="1.0" encoding="iso-8859-1"?>
<!-- Generator: Adobe Illustrator 19.0.0, SVG Export Plug-In . SVG Version: 6.00 Build 0)  -->
<svg xmlns="http://www.w3.org/2000/svg" xmlns:xlink="http://www.w3.org/1999/xlink" version="1.1" id="Capa_1" x="0px" y="0px" viewBox="0 0 496.941 496.941" style="enable-background:new 0 0 496.941 496.941;" xml:space="preserve" width="512px" height="512px">
<g>
	<g>
		<g>
			<path d="M474.353,35.388h-43.671V15.059h16.565c4.518,0,7.529-3.012,7.529-7.529S451.765,0,447.247,0h-48.188     c-4.518,0-7.529,3.012-7.529,7.529s3.012,7.529,7.529,7.529h16.565v20.329H313.976V15.059h16.565     c4.518,0,7.529-3.012,7.529-7.529S335.059,0,330.541,0h-47.435c-4.518,0-7.529,3.012-7.529,7.529s3.012,7.529,7.529,7.529h16.565     v20.329H198.023V15.059h16.565c4.518,0,7.529-3.012,7.529-7.529S219.106,0,214.588,0h-47.435c-4.518,0-7.529,3.012-7.529,7.529     s3.012,7.529,7.529,7.529h16.565v20.329h-102.4V15.059h16.565c4.518,0,7.529-3.012,7.529-7.529S102.4,0,97.882,0H49.694     c-4.518,0-7.529,3.012-7.529,7.529s3.012,7.529,7.529,7.529h16.565v20.329H22.588C10.541,35.388,0,45.176,0,57.976v269.553     c0,12.047,9.788,22.588,22.588,22.588h173.929v90.353h-57.224c-4.518,0-7.529,3.012-7.529,7.529v41.412     c0,4.518,3.012,7.529,7.529,7.529h217.6c4.518,0,7.529-3.012,7.529-7.529V448c0-4.518-3.012-7.529-7.529-7.529h-57.224v-90.353     h174.682c12.047,0,22.588-9.788,22.588-22.588V57.976C496.941,45.929,487.153,35.388,474.353,35.388z M350.118,455.529v26.353     h-0.753H147.576v-26.353C167.906,455.529,327.529,455.529,350.118,455.529z M211.576,440.471v-90.353h73.788v90.353H211.576z      M481.882,327.529c0,3.765-3.012,7.529-7.529,7.529c-228.141,0-223.624,0-451.765,0c-3.765,0-7.529-3.012-7.529-7.529V57.976     c0-3.765,3.012-7.529,7.529-7.529h451.765c3.765,0,7.529,3.012,7.529,7.529V327.529z" fill="#FFFFFF"/>
			<path d="M224.376,136.282c-2.259-5.271-10.541-5.271-13.553,0l-20.329,39.906l-44.424-81.318c-3.012-4.518-10.541-4.518-13.553,0     L54.965,237.929c-1.506,2.259-1.506,5.271,0,7.529c1.506,2.259,3.765,3.765,6.776,3.765c100.141,0,194.259,0,207.812,0     c2.259,0,5.271-1.506,6.776-3.765c1.506-2.259,1.506-5.271,0-7.529L224.376,136.282z M74.541,234.165L140.047,115.2     l65.506,118.965C203.294,234.165,158.871,234.165,74.541,234.165z M222.118,234.165l-22.588-41.412l18.071-36.141l39.153,77.553     H222.118z" fill="#FFFFFF"/>
			<path d="M269.553,271.812H61.741c-4.518,0-7.529,3.012-7.529,7.529c0,4.518,3.012,7.529,7.529,7.529h207.812     c4.518,0,7.529-3.012,7.529-7.529C277.082,274.824,273.318,271.812,269.553,271.812z" fill="#FFFFFF"/>
			<path d="M306.447,158.118h82.071c4.518,0,7.529-3.012,7.529-7.529c0-4.518-3.012-7.529-7.529-7.529h-82.071     c-4.518,0-7.529,3.012-7.529,7.529C298.918,155.106,302.682,158.118,306.447,158.118z" fill="#FFFFFF"/>
			<path d="M447.247,188.988h-140.8c-4.518,0-7.529,3.012-7.529,7.529s3.012,7.529,7.529,7.529h140.047     c4.518,0,7.529-3.012,7.529-7.529S451.012,188.988,447.247,188.988z" fill="#FFFFFF"/>
			<path d="M447.247,234.165h-140.8c-4.518,0-7.529,3.012-7.529,7.529s3.012,7.529,7.529,7.529h140.047     c4.518,0,7.529-3.012,7.529-7.529S451.012,234.165,447.247,234.165z" fill="#FFFFFF"/>
		</g>
	</g>
</g>
<g>
</g>
<g>
</g>
<g>
</g>
<g>
</g>
<g>
</g>
<g>
</g>
<g>
</g>
<g>
</g>
<g>
</g>
<g>
</g>
<g>
</g>
<g>
</g>
<g>
</g>
<g>
</g>
<g>
</g>
</svg>
