<?xml version="1.0" encoding="iso-8859-1"?>
<!-- Generator: Adobe Illustrator 19.0.0, SVG Export Plug-In . SVG Version: 6.00 Build 0)  -->
<svg xmlns="http://www.w3.org/2000/svg" xmlns:xlink="http://www.w3.org/1999/xlink" version="1.1" id="Capa_1" x="0px" y="0px" viewBox="0 0 496.941 496.941" style="enable-background:new 0 0 496.941 496.941;" xml:space="preserve" width="512px" height="512px">
<g>
	<g>
		<g>
			<path d="M489.412,164.141H368.941l-85.835-97.129c5.271-6.776,9.035-15.812,9.035-25.6C292.141,18.824,273.318,0,250.729,0     c-23.341,0-41.412,18.824-41.412,41.412c0,9.788,3.765,18.824,9.035,25.6l-85.835,97.129H7.529c-4.518,0-7.529,3.012-7.529,7.529     v317.741c0,4.518,3.012,7.529,7.529,7.529h481.882c4.518,0,7.529-3.012,7.529-7.529V171.671     C496.941,167.153,493.929,164.141,489.412,164.141z M250.729,15.059c15.059,0,26.353,12.047,26.353,26.353     c0,14.306-12.047,26.353-26.353,26.353c-14.306,0-26.353-12.047-26.353-26.353C223.624,27.106,235.671,15.059,250.729,15.059z      M228.894,76.8c13.553,7.529,29.365,7.529,42.918,0l76.8,86.588H152.094L228.894,76.8z M481.882,481.882H15.059V179.2h103.906     l-33.882,38.4H70.776c-4.518,0-7.529,3.012-7.529,7.529s3.012,7.529,7.529,7.529H115.2c4.518,0,7.529-3.012,7.529-7.529     s-3.012-7.529-7.529-7.529h-9.788l33.882-38.4h222.871l33.882,38.4h-9.788c-4.518,0-7.529,3.012-7.529,7.529     s3.012,7.529,7.529,7.529h45.177c4.518,0,7.529-3.012,7.529-7.529s-3.012-7.529-7.529-7.529h-15.059l-33.882-38.4h99.388V481.882     z" fill="#868686"/>
			<path d="M138.541,356.894c-1.506,0.753-4.518,1.506-7.529,1.506c-8.282,0-16.565-4.518-26.353-12.8l-12.047,14.306     c11.294,10.541,23.341,15.812,37.647,15.812c9.788,0,17.318-2.259,23.341-7.529c6.024-5.271,9.035-11.294,9.035-18.824     s-2.259-13.553-6.776-18.071c-4.518-3.765-11.294-7.529-19.576-9.035c-8.282-2.259-13.553-3.765-15.812-5.271     c-2.259-1.506-3.765-3.765-3.765-6.023c0-2.259,0.753-4.518,3.012-6.023c2.259-1.506,4.518-2.259,7.529-2.259     c8.282,0,15.812,3.012,23.341,9.035l9.788-14.306c-4.518-3.765-9.788-6.776-15.059-8.282c-6.023-2.259-12.047-3.012-17.318-3.012     c-9.035,0-16.565,2.259-22.588,6.776c-6.023,4.518-9.035,11.294-9.035,19.576c0,8.282,2.259,14.306,6.776,18.071     s12.047,6.776,22.588,9.788c6.776,1.506,10.541,3.012,12.8,4.518c2.259,1.506,3.012,3.765,3.012,6.023     C141.553,353.129,140.8,355.388,138.541,356.894z" fill="#868686"/>
			<path d="M195.765,356.141h36.894l8.282,18.824h21.082l-37.647-88.094h-18.824l-37.647,88.094h21.082L195.765,356.141z      M214.588,313.224l11.294,25.6h-22.588L214.588,313.224z" fill="#868686"/>
			<polygon points="329.035,357.647 291.388,357.647 291.388,286.871 271.812,286.871 271.812,374.965 329.035,374.965    " fill="#868686"/>
			<polygon points="408.094,357.647 362.918,357.647 362.918,339.576 402.824,339.576 402.824,322.259 362.918,322.259      362.918,304.188 407.341,304.188 407.341,286.871 343.341,286.871 343.341,374.965 408.094,374.965    " fill="#868686"/>
			<path d="M410.353,426.918H86.588c-4.518,0-7.529,3.012-7.529,7.529s3.012,7.529,7.529,7.529h323.765     c4.518,0,7.529-3.012,7.529-7.529S414.871,426.918,410.353,426.918z" fill="#868686"/>
		</g>
	</g>
</g>
<g>
</g>
<g>
</g>
<g>
</g>
<g>
</g>
<g>
</g>
<g>
</g>
<g>
</g>
<g>
</g>
<g>
</g>
<g>
</g>
<g>
</g>
<g>
</g>
<g>
</g>
<g>
</g>
<g>
</g>
</svg>
