<svg id="Capa_1" data-name="Capa 1" xmlns="http://www.w3.org/2000/svg" viewBox="0 0 448 480"><defs><style>.cls-1{fill:#868686;}</style></defs><title>billboard</title><path class="cls-1" d="M312,192v-8.88a56,56,0,1,0-80,0V192H216v16H328V192Zm-10.18-21.42a40.12,40.12,0,0,1-3.17,3.17,8,8,0,0,0-2.66,6V192H280V171.31l21.66-21.66-11.31-11.31L272,156.69l-18.34-18.34-11.31,11.31L264,171.31V192H248V179.7a8,8,0,0,0-2.66-6,40,40,0,1,1,56.48-3.17Z" transform="translate(-16 0)"/><path class="cls-1" d="M456,64a8,8,0,0,0,8-8V24a8,8,0,0,0-8-8H88a8,8,0,0,0-8,8v8H64V8a8,8,0,0,0-8-8H24a8,8,0,0,0-8,8V472a8,8,0,0,0,8,8H56a8,8,0,0,0,8-8V368H80v8a8,8,0,0,0,8,8H456a8,8,0,0,0,8-8V344a8,8,0,0,0-8-8h-8V64ZM48,464H32V16H48ZM80,344v8H64V48H80v8a8,8,0,0,0,8,8h8V336H88A8,8,0,0,0,80,344Zm368,24H96V352H448ZM112,336V64H432V336ZM96,48V32H448V48Z" transform="translate(-16 0)"/><rect class="cls-1" x="288" y="232" width="104" height="16"/><rect class="cls-1" x="224" y="264" width="168" height="16"/><rect class="cls-1" x="224" y="296" width="136" height="16"/><rect class="cls-1" x="256" y="232" width="16" height="16"/><path class="cls-1" d="M208,232H144a8,8,0,0,0-8,8v64a8,8,0,0,0,8,8h64a8,8,0,0,0,8-8V240A8,8,0,0,0,208,232Zm-8,64H152V248h48Z" transform="translate(-16 0)"/></svg>