<svg id="Capa_1" data-name="Capa 1" xmlns="http://www.w3.org/2000/svg" viewBox="0 0 512.01 512"><defs><style>.cls-1{fill:#868686;}</style></defs><title>ситилайт</title><path class="cls-1" d="M281.6,409.6H230.4a8.54,8.54,0,0,0-8.53,8.53v85.33A8.54,8.54,0,0,0,230.4,512h51.2a8.54,8.54,0,0,0,8.53-8.53V418.13A8.54,8.54,0,0,0,281.6,409.6Zm-8.53,85.33H238.93V426.67h34.13Z" transform="translate(0.01 0)"/><path class="cls-1" d="M401.07,0H110.93a8.54,8.54,0,0,0-8.53,8.53V349.87a8.54,8.54,0,0,0,8.53,8.53H401.07a8.54,8.54,0,0,0,8.53-8.53V8.53A8.53,8.53,0,0,0,401.07,0Zm-8.53,341.33H119.47V17.07H392.53V341.33Z" transform="translate(0.01 0)"/><path class="cls-1" d="M366.93,34.13H145.07a8.54,8.54,0,0,0-8.53,8.53V315.73a8.54,8.54,0,0,0,8.53,8.53H366.93a8.54,8.54,0,0,0,8.53-8.53V42.67A8.54,8.54,0,0,0,366.93,34.13ZM358.4,307.2H153.6V51.2H358.4Z" transform="translate(0.01 0)"/><path class="cls-1" d="M315.73,341.33H196.27a8.54,8.54,0,0,0-8.53,8.53V384a8.54,8.54,0,0,0,8.53,8.53H315.73a8.54,8.54,0,0,0,8.53-8.53V349.87A8.54,8.54,0,0,0,315.73,341.33Zm-8.53,34.13H204.8V358.4H307.2Z" transform="translate(0.01 0)"/><path class="cls-1" d="M332.8,273.07H230.4a8.54,8.54,0,1,0,0,17.07H332.8a8.54,8.54,0,1,0,0-17.07Z" transform="translate(0.01 0)"/><path class="cls-1" d="M196.27,273.07H179.2a8.54,8.54,0,0,0,0,17.07h17.07a8.54,8.54,0,1,0,0-17.07h0Z" transform="translate(0.01 0)"/><path class="cls-1" d="M332.8,238.93H315.73a8.54,8.54,0,1,0,0,17.07H332.8a8.54,8.54,0,0,0,0-17.07Z" transform="translate(0.01 0)"/><path class="cls-1" d="M298.67,375.47H213.33A8.54,8.54,0,0,0,204.8,384v34.13a8.54,8.54,0,0,0,8.53,8.53h85.33a8.54,8.54,0,0,0,8.53-8.53V384A8.54,8.54,0,0,0,298.67,375.47Zm-8.53,34.13H221.87V392.53h68.27Z" transform="translate(0.01 0)"/><path class="cls-1" d="M42.67,494.93H8.53a8.54,8.54,0,0,0,0,17.07H42.67a8.54,8.54,0,0,0,0-17.07Z" transform="translate(0.01 0)"/><path class="cls-1" d="M503.47,494.93H315.73a8.54,8.54,0,1,0,0,17.07H503.47a8.54,8.54,0,0,0,0-17.07Z" transform="translate(0.01 0)"/><path class="cls-1" d="M196.27,494.93H102.4a8.54,8.54,0,0,0,0,17.07h93.87a8.54,8.54,0,0,0,0-17.07Z" transform="translate(0.01 0)"/><path class="cls-1" d="M310.64,205c0-1-.61-99.17-53.47-99.17S203.7,204.06,203.7,205c0,18.42,18.41,33.82,42.78,37.37V273.7H241.7c1.7,4,2.91,8.55,2.47,12.58-.1.91-.25,1.8-.42,2.68h35.78A48.52,48.52,0,0,1,276,273.71h-8.14V242.42C292.24,238.88,310.64,223.48,310.64,205Zm-53.3,19.88c-19.62,0-35.59-9.94-35.59-22.16,0-36.8,15.87-81.25,35.59-81.25s35.59,44.45,35.59,81.25c0,12.23-15.93,22.16-35.59,22.16Z" transform="translate(0.01 0)"/></svg>