<svg id="Capa_1" data-name="Capa 1" xmlns="http://www.w3.org/2000/svg" viewBox="0 0 496 453.21"><defs><style>.cls-1{fill:#868686;}</style></defs><title>остановка</title><path class="cls-1" d="M470.25,0H25.75L.24,93.21,0,102.34c0,24.19,21.53,43.87,48,43.87V438.59H32v14.62H464V438.59H448V146.21c26.47,0,48-19.67,48-43.86V95ZM256,14.62h56.64l6.66,73.1H256Zm64,87.72c0,16.13-14.35,29.24-32,29.24s-32-13.11-32-29.24ZM183.36,14.62H240v73.1H176.7ZM240,102.34c0,16.13-14.35,29.24-32,29.24s-32-13.11-32-29.24ZM110.78,14.62H167.3l-6.66,73.1H97.44ZM160,102.34c0,16.13-14.35,29.24-32,29.24s-32-13.11-32-29.24ZM80,438.59H64v-295a49.19,49.19,0,0,0,16-8.7Zm-32-307c-17.65,0-32-13.11-32-29.24H80c0,16.11-14.35,29.23-32,29.23ZM81.22,87.73h-63l20-73.1H94.56ZM208,438.59H144V387.42h64ZM128,372.8V358.21h96v14.62Zm224,65.79H288V387.42h64ZM272,372.8V358.21h96v14.62Zm128,65.79H368V387.42h16V343.56H256v43.86h16v51.17H224V387.42h16V343.56H112v43.86h16v51.17H96v-117H400ZM400,307H96V134.94a50.36,50.36,0,0,0,32,11.27c16.69,0,31.39-7.83,40-19.66,8.61,11.84,23.31,19.66,40,19.66s31.39-7.83,40-19.66c8.61,11.84,23.31,19.66,40,19.66s31.39-7.83,40-19.66c8.61,11.83,23.31,19.66,40,19.66a50.36,50.36,0,0,0,32-11.26ZM368,131.58c-17.65,0-32-13.11-32-29.24h64C400,118.46,385.65,131.58,368,131.58Zm38.56-88.92-15.78,2.4,7.78,42.66h-63.2l-6.66-73.1h56.53l2.89,15.83L403.9,28l-2.46-13.42h56.31l20,73.1h-63ZM432,438.59H416V134.94a48.92,48.92,0,0,0,16,8.7Zm16-307c-17.65,0-32-13.11-32-29.24h64c0,16.11-14.35,29.23-32,29.23Z" transform="translate(0 0)"/><rect class="cls-1" y="437.21" width="16" height="16"/><rect class="cls-1" x="480" y="437.21" width="16" height="16"/><path class="cls-1" d="M207.55,178.06a41.34,41.34,0,0,0-41.29,41.29v57.81h16.52V252.38h49.55v24.77h16.52v-57.8A41.33,41.33,0,0,0,207.55,178.06Zm24.77,57.81H182.77V219.35a24.78,24.78,0,1,1,49.55,0h0Z" transform="translate(0 0)"/><path class="cls-1" d="M290.13,178.06h-33v99.1h33a49.55,49.55,0,0,0,0-99.1Zm0,82.58H273.61V194.57h16.52a33,33,0,1,1,0,66.07h0Z" transform="translate(0 0)"/></svg>