<svg id="Layer_1" data-name="Layer 1" xmlns="http://www.w3.org/2000/svg" viewBox="0 0 506.1 512"><defs><style>.cls-1{fill:#fff;}</style></defs><title>barrier (1)</title><path class="cls-1" d="M483.65,74.56h-9.48V60.81a11.71,11.71,0,0,0-11.7-11.7h-1.14l-4.15-32.4A19.18,19.18,0,0,0,438.2,0H414.44a19.19,19.19,0,0,0-19,16.72l-4.15,32.4h-1.14a11.71,11.71,0,0,0-11.7,11.7V74.56h-59a7.41,7.41,0,1,0,0,14.83h5.94L255.1,199H211.43L281.77,89.39h7.77a7.41,7.41,0,1,0,0-14.83H135.23V60.81a11.71,11.71,0,0,0-11.7-11.7h-1.14l-4.15-32.4A19.18,19.18,0,0,0,99.26,0H75.51a19.19,19.19,0,0,0-19,16.72l-4.15,32.4H51.24a11.71,11.71,0,0,0-11.7,11.7V74.56H28.34a25.29,25.29,0,0,0-17.77,7.29L10.4,82l-.18.19A25.31,25.31,0,0,0,3,100H3v88.41H3A25.3,25.3,0,0,0,4.44,197L7.63,209.6,10,205.92a25.32,25.32,0,0,0,18.36,7.87h24v26.83H28.32c-.69,0-1.38,0-2.06.09l-.27,0c-.68.06-1.35.15-2,.27l-.21,0q-1,.19-2.07.47h0a25.26,25.26,0,0,0-6,2.54l-.15.09q-.87.52-1.7,1.1l-.24.17q-.8.58-1.56,1.22l-.1.08-.83.71-.07.1A25.45,25.45,0,0,0,4.27,258l0,.05-.08.29A25.24,25.24,0,0,0,3,264.16c0,.08,0,.15,0,.23C3,264.94,3,265.48,3,266H3v88.41H3a25.42,25.42,0,0,0,.51,5.06L10,372a25.32,25.32,0,0,0,18.36,7.87h24v30.4a7.41,7.41,0,1,0,14.83,0v-30.4h40.35V493.14a4,4,0,0,1-4,4H71.25a4,4,0,0,1-4-4V440.23a7.41,7.41,0,1,0-14.83,0v52.91A18.88,18.88,0,0,0,71.25,512h32.28a18.88,18.88,0,0,0,18.86-18.86V379.86H391.32V493.14A18.88,18.88,0,0,0,410.18,512h32.28a18.88,18.88,0,0,0,18.86-18.86V379.86h22.32a25.43,25.43,0,0,0,25.4-25.4V266a25.43,25.43,0,0,0-25.4-25.4H461.32V213.79h22.39c.47,0,.93,0,1.39,0l.49,0,1-.09.55-.07.9-.14.53-.1,1-.21.45-.1c.43-.11.87-.23,1.29-.37l.6-.21.68-.24.73-.29.49-.21.82-.37.28-.14a25.37,25.37,0,0,0,8.4-6.65h0c.52-.62,1-1.27,1.47-1.95.12-.18.23-.38.35-.56l.42-.67.39-.67c.18-.32.35-.65.52-1s.21-.42.31-.64q.26-.56.49-1.13l.2-.49c.19-.49.36-1,.52-1.49v-.07c.16-.53.3-1.07.43-1.61l.09-.37c.13-.56.24-1.12.32-1.7h0c.08-.56.14-1.12.19-1.69q0-.2,0-.39c0-.57.06-1.14.06-1.72h0V100A25.44,25.44,0,0,0,483.65,74.56Zm-73.48-56a4.32,4.32,0,0,1,4.28-3.77H438.2a4.32,4.32,0,0,1,4.28,3.77l3.91,30.51H406.26ZM393.3,63.94h66V74.55h-66Zm61.28,25.44L384.24,199H340.57L410.91,89.39Zm-111.52,0h50.22L322.95,199H272.73Zm-79.86,124.4H391.32v26.83H122.39V213.79H263.21Zm.95-124.4L193.81,199H143.59L213.93,89.39Zm-111.52,0h43.68L126,199H82.29Zm-45.07,124.4v26.83H67.21V213.79ZM71.23,18.6a4.33,4.33,0,0,1,4.28-3.77H99.26a4.33,4.33,0,0,1,4.28,3.77l3.91,30.51H67.32ZM54.37,63.94h66V74.55h-66ZM17.78,100A10.61,10.61,0,0,1,28.35,89.39H67.18l-49.4,77Zm10.58,99a10.59,10.59,0,0,1-9.74-6.47L84.8,89.39H135L64.68,199ZM17.78,266c0-.17,0-.33,0-.5s0-.32,0-.48c0-.33.08-.65.14-1l4.28-6.67.06,0,.31-.21.56-.34.18-.1c.28-.15.57-.29.86-.42l.06,0q.43-.18.88-.32l.1,0c.29-.09.59-.17.9-.23l.1,0c.31-.06.63-.11.95-.14h.09q.53-.05,1.06-.05H67.18l-49.4,77Zm46.9,99H28.35a10.59,10.59,0,0,1-9.74-6.47L84.8,255.45H135Zm61.3,0H82.29l70.34-109.58h43.68Zm17.62,0,70.34-109.58h50.22L193.81,365Zm111.52,0H211.43l70.34-109.58h43.68Zm17.62,0,70.34-109.58h50.22L322.95,365Zm111.52,0H340.57l70.34-109.58h43.68Zm62.26-124.4H406.14V213.79H446.5Zm0,252.51h0a4,4,0,0,1-4,4H410.18a4,4,0,0,1-4-4V379.86H446.5V493.14Zm47.72-138.7A10.59,10.59,0,0,1,483.66,365h-14l24.52-38.19Zm-22-99h11.44A10.59,10.59,0,0,1,494.22,266v33.36L452.08,365H401.86Zm22-67.07s0,0,0,0c0,.31,0,.62,0,.93,0,.1,0,.2,0,.29s-.06.48-.11.71l0,.25a10,10,0,0,1-.27,1,10.73,10.73,0,0,1-.45,1.15l-.19.38a10.82,10.82,0,0,1-.57,1l-.27.4c-.16.22-.32.44-.5.65s-.25.28-.38.41l-.42.42-.43.39-.46.37-.45.34a10.55,10.55,0,0,1-.91.56l-.39.19c-.22.11-.45.22-.68.31l-.45.16-.69.22-.45.12c-.25.06-.51.1-.76.14l-.41.06a10.75,10.75,0,0,1-1.14.07h-14l24.52-38.2v27.61Zm0-55.06L452.08,199H401.86L472.2,89.39h11.44A10.59,10.59,0,0,1,494.22,100v33.36Z" transform="translate(-2.95 0)"/></svg>