<svg id="Capa_1" data-name="Capa 1" xmlns="http://www.w3.org/2000/svg" viewBox="0 0 286.25 280"><defs><style>.cls-1{fill:#fff;}</style></defs><title>Бин-боксы</title><path class="cls-1" d="M244.85,1,133.95,23.32c-4.71,0-8.53,3.22-8.53,7.18V165c0,4,3.82,7.18,8.53,7.18l110.9,19.48c4.71,0,8.53-3.22,8.53-7.18V8.19C253.39,4.22,249.56,1,244.85,1Zm-8.53,174-93.87-14.85V33.84l93.87-18.47V175Z" transform="translate(0.05 0)"/><path class="cls-1" d="M244.85,181.34,133.2,160.65c-4.71,0-7.53-7.41-7.53-5.46l-.28,108c0,2,3.82,3.54,8.53,3.54l110.93,9.6c4.71,0,8.53-1.59,8.53-3.54v-87C253.39,183.92,250.6,182.71,244.85,181.34Zm-8.53,79-93.87-8.6-.72-82.95,94.59,20.68Z" transform="translate(0.05 0)"/><path class="cls-1" d="M158.95,259.2" transform="translate(0.05 0)"/><path class="cls-1" d="M178.82,266.38h0C191.06,266.4,205,266.38,178.82,266.38Z" transform="translate(0.05 0)"/><path class="cls-1" d="M130.45,253.35a16,16,0,0,1,0-3.08H68V217.1c25.84-3.76,45.35-20.09,45.35-39.62,0-1.05-.65-105.13-56.69-105.13S-.05,176.43-.05,177.49c0,19.53,19.51,35.86,45.35,39.62v33.16h-34C5,250.27,0,253.89,0,258.36S5,266.45,11.3,266.45H130.95C130.95,262.08,130.85,257.72,130.45,253.35ZM17.28,177c0-39.25,17.48-86.67,39.19-86.67S95.66,137.77,95.66,177c0,13-17.58,23.64-39.19,23.64S17.28,190,17.28,177Z" transform="translate(0.05 0)"/><path class="cls-1" d="M250.78,249.55l14.7-3a6.75,6.75,0,0,1,8,5.26h0a6.75,6.75,0,0,1-5.26,8l-14.7,3a6.75,6.75,0,0,1-8-5.26h0A6.75,6.75,0,0,1,250.78,249.55Z" transform="translate(0.05 0)"/><path class="cls-1" d="M252.76,21.71l14.7-3a6.75,6.75,0,0,1,8,5.26h0a6.75,6.75,0,0,1-5.26,8l-14.7,3a6.75,6.75,0,0,1-8-5.26h0A6.75,6.75,0,0,1,252.76,21.71Z" transform="translate(0.05 0)"/><path class="cls-1" d="M277.7,0h0a8.5,8.5,0,0,1,8.5,8.5v263a8.5,8.5,0,0,1-8.5,8.5h0a8.5,8.5,0,0,1-8.5-8.5V8.5A8.5,8.5,0,0,1,277.7,0Z" transform="translate(0.05 0)"/><path class="cls-1" d="M189.39,56.56a34.81,34.81,0,0,0-34.77,34.77V140h13.91V119.14h41.72V140h13.91V91.32A34.81,34.81,0,0,0,189.39,56.56Zm20.86,48.68H168.53V91.32a20.86,20.86,0,0,1,41.72,0v13.91Z" transform="translate(0.05 0)"/></svg>