<svg id="Capa_1" data-name="Capa 1" xmlns="http://www.w3.org/2000/svg" viewBox="0 0 506.1 368.61"><defs><style>.cls-1,.cls-2{fill:none;}.cls-2{stroke:#fff;stroke-miterlimit:10;stroke-width:15px;}.cls-3{fill:#fff;}</style></defs><title>фенслайт</title><line class="cls-1" x1="340.67" x2="323.43"/><rect class="cls-2" x="83.5" y="114.96" width="340.45" height="200.03" rx="12" ry="12"/><rect class="cls-3" x="134.1" y="193.29" width="41.86" height="12.53"/><rect class="cls-3" x="325.43" y="193.29" width="44.97" height="12.53"/><rect class="cls-3" x="374" y="53.78" width="132.1" height="15.1" rx="5.51" ry="5.51"/><rect class="cls-3" x="374" y="353.51" width="132.1" height="15.1" rx="5.51" ry="5.51"/><rect class="cls-3" x="416.4" y="61.33" width="15.1" height="307.28" rx="5.51" ry="5.51"/><rect class="cls-3" x="449.4" y="61.33" width="15.1" height="307.28" rx="5.51" ry="5.51"/><rect class="cls-3" y="53.78" width="132.1" height="15.1" rx="5.51" ry="5.51"/><rect class="cls-3" y="353.51" width="132.1" height="15.1" rx="5.51" ry="5.51"/><rect class="cls-3" x="42.4" y="61.33" width="15.1" height="307.28" rx="5.51" ry="5.51"/><rect class="cls-3" x="75.4" y="61.33" width="15.1" height="307.28" rx="5.51" ry="5.51"/><path class="cls-3" d="M210.3,167.43A41.34,41.34,0,0,0,169,208.72v57.81h16.52V241.79h49.55v24.77h16.53V208.72A41.33,41.33,0,0,0,210.3,167.43Zm24.77,57.81H185.53V208.72a24.78,24.78,0,1,1,49.55,0h0v16.52Z" transform="translate(0 0)"/><path class="cls-3" d="M292.88,167.43h-33v99.1h33a49.55,49.55,0,0,0,0-99.1Zm0,82.58H276.37V183.95h16.52a33,33,0,0,1,0,66.07Z" transform="translate(0 0)"/></svg>