<svg id="Capa_1" data-name="Capa 1" xmlns="http://www.w3.org/2000/svg" viewBox="0 0 503.81 504.29"><defs><style>.cls-1{fill:#fff;}.cls-2{fill:none;stroke:#fff;stroke-miterlimit:10;stroke-width:15px;}</style></defs><title>пиллар2</title><path class="cls-1" d="M427.79,0H137.65c-4.71,0-8.53,4.24-8.53,9.47V388.32c0,5.23,3.82,9.47,8.53,9.47H427.79c4.71,0,8.53-4.24,8.53-9.47V9.47C436.32,4.24,432.5,0,427.79,0Zm-8.53,378.85H146.19V18.94H419.25V378.85Z" transform="translate(0 0)"/><path class="cls-1" d="M393.65,34.13H171.79c-4.71,0-8.53,4.19-8.53,9.34v299c0,5.16,3.82,9.34,8.53,9.34H393.65c4.71,0,8.53-4.19,8.53-9.34v-299C402.19,38.32,398.4,34.13,393.65,34.13Zm-8.53,299H180.32V52.82h204.8V333.13Z" transform="translate(0 0)"/><path class="cls-1" d="M323.8,237.07H241.64c-22.68,0-41.08,3.82-41.08,8.53s18.41,8.53,41.08,8.53H323.8c22.68,0,41.08-3.82,41.08-8.53S346.48,237.07,323.8,237.07Z" transform="translate(0 0)"/><path class="cls-1" d="M294.7,436.76H277.63a8.54,8.54,0,1,0,0,17.07H294.7a8.54,8.54,0,1,0,0-17.07Z" transform="translate(0 0)"/><rect class="cls-2" x="159.49" y="393.79" width="246.47" height="103" rx="12" ry="12"/><path class="cls-1" d="M290.83,234.7l46.38-77.63a11.21,11.21,0,0,0-9.41-17l-89.72-1.74A11.21,11.21,0,0,0,228,154.92l43.38,79.4a11.21,11.21,0,0,0,19.47.38Zm-46.49-79.47,74.57,1.33L281.4,220.07Z" transform="translate(0 0)"/><path class="cls-1" d="M171.3,504.22c.86-.46-2.94-.9-2-1.3L159,488.1H68V454.93c25.84-3.76,45.38-20.09,45.38-39.62,0-1-.65-105.13-56.69-105.13S0,414.26,0,415.32c0,19.53,19.51,35.86,45.35,39.62V488.1h-34C5.09,488.1,0,491.72,0,496.19s5.08,8.09,11.34,8.09H170C170.16,504.28,229.16,504.22,171.3,504.22ZM15.64,415c0-41.9,18.07-92.51,40.52-92.51S96.68,373.13,96.68,415c0,13.91-18.18,25.23-40.52,25.23S15.64,428.94,15.64,415Z" transform="translate(0 0)"/><path class="cls-1" d="M470.2,459.64a49.21,49.21,0,0,0-5.8.36c-7.73-9.26-22.44-15.23-39.06-15.23a61,61,0,0,0-26,5.54.59.59,0,0,0,.06.31,85.24,85.24,0,0,1,0,24.34,8.31,8.31,0,0,0,4.23-4.57c2.36-7.22,11.32-12.26,21.76-12.26s19.4,5,21.76,12.26c.82,2.51,3.32,4.59,6.7,5.55a15.35,15.35,0,0,0,10.29-.68c7.26-3.36,17.26.74,17.26,6.6,0,4.37-5,7.92-11.21,7.92H396.68a17.71,17.71,0,0,1-.5,2.11l-.09.26c-.13,2-.26,4.07-.37,6.11s-.24,4-.42,6h74.9c18.53,0,33.61-10,33.61-22.34S488.73,459.64,470.2,459.64Z" transform="translate(0 0)"/></svg>